<?xml version="1.0" encoding="UTF-8" standalone="no"?>
<svg
   xmlns:dc="http://purl.org/dc/elements/1.1/"
   xmlns:cc="http://creativecommons.org/ns#"
   xmlns:rdf="http://www.w3.org/1999/02/22-rdf-syntax-ns#"
   xmlns:svg="http://www.w3.org/2000/svg"
   xmlns="http://www.w3.org/2000/svg"
   xmlns:sodipodi="http://sodipodi.sourceforge.net/DTD/sodipodi-0.dtd"
   xmlns:inkscape="http://www.inkscape.org/namespaces/inkscape"
   version="1.1"
   id="svg2"
   xml:space="preserve"
   width="330.00534"
   height="330.00534"
   viewBox="0 0 330.00534 330.00534"
   sodipodi:docname="Sudan-PBF_JIPS-dashboard-drafticons-2.ai"><metadata
     id="metadata8"><rdf:RDF><cc:Work
         rdf:about=""><dc:format>image/svg+xml</dc:format><dc:type
           rdf:resource="http://purl.org/dc/dcmitype/StillImage" /></cc:Work></rdf:RDF></metadata><defs
     id="defs6"><clipPath
       clipPathUnits="userSpaceOnUse"
       id="clipPath18"><path
         d="M 0,247.504 H 247.504 V 0 H 0 Z"
         id="path16" /></clipPath></defs><sodipodi:namedview
     pagecolor="#ffffff"
     bordercolor="#666666"
     borderopacity="1"
     objecttolerance="10"
     gridtolerance="10"
     guidetolerance="10"
     inkscape:pageopacity="0"
     inkscape:pageshadow="2"
     inkscape:window-width="640"
     inkscape:window-height="480"
     id="namedview4" /><g
     id="g10"
     inkscape:groupmode="layer"
     inkscape:label="Sudan-PBF_JIPS-dashboard-drafticons-2"
     transform="matrix(1.3333333,0,0,-1.3333333,0,330.00533)"><g
       id="g12"><g
         id="g14"
         clip-path="url(#clipPath18)"><g
           id="g20"
           transform="translate(191.9324,105.3745)"><path
             d="m 0,0 h 2.336 c 10.696,0 19.368,8.671 19.368,19.368 0,10.697 -8.672,19.368 -19.368,19.368 H -8.611"
             style="fill:none;stroke:#515ca2;stroke-width:3;stroke-linecap:round;stroke-linejoin:round;stroke-miterlimit:4;stroke-dasharray:none;stroke-opacity:1"
             id="path22" /></g><g
           id="g24"
           transform="translate(193.6834,99.3911)"><path
             d="M 0,0 -10.362,5.983 0,11.967 Z"
             style="fill:#515ca2;fill-opacity:1;fill-rule:nonzero;stroke:none"
             id="path26" /></g><g
           id="g28"
           transform="translate(197.7645,77.6563)"><path
             d="M 0,0 H -158.449"
             style="fill:#eaf2fb;fill-opacity:1;fill-rule:nonzero;stroke:#555555;stroke-width:1;stroke-linecap:round;stroke-linejoin:round;stroke-miterlimit:10;stroke-dasharray:none;stroke-opacity:1"
             id="path30" /></g><g
           id="g32"
           transform="translate(156.8865,77.6563)"><path
             d="m 0,0 h -14.442 v 2.635 c 0,1.193 0.965,2.159 2.158,2.159 h 8.232 C -1.813,4.794 0,2.98 0,0.742 Z"
             style="fill:#ffffff;fill-opacity:1;fill-rule:nonzero;stroke:none"
             id="path34" /></g><g
           id="g36"
           transform="translate(156.8865,77.6563)"><path
             d="m 0,0 h -14.442 v 2.635 c 0,1.193 0.965,2.159 2.158,2.159 h 8.232 C -1.813,4.794 0,2.98 0,0.742 Z"
             style="fill:none;stroke:#555555;stroke-width:1;stroke-linecap:round;stroke-linejoin:round;stroke-miterlimit:10;stroke-dasharray:none;stroke-opacity:1"
             id="path38" /></g><g
           id="g40"
           transform="translate(149.6648,96.6099)"><path
             d="m 0,0 h -4.682 v -13.882 c 0,-1.092 0.886,-1.978 1.979,-1.978 h 0.724 c 1.093,0 1.979,0.886 1.979,1.978 z"
             style="fill:#515ca2;fill-opacity:1;fill-rule:nonzero;stroke:none"
             id="path42" /></g><g
           id="g44"
           transform="translate(149.6648,96.6099)"><path
             d="m 0,0 h -4.682 v -13.882 c 0,-1.092 0.886,-1.978 1.979,-1.978 h 0.724 c 1.093,0 1.979,0.886 1.979,1.978 z"
             style="fill:none;stroke:#555555;stroke-width:1;stroke-linecap:round;stroke-linejoin:round;stroke-miterlimit:10;stroke-dasharray:none;stroke-opacity:1"
             id="path46" /></g><g
           id="g48"
           transform="translate(125.0867,77.6563)"><path
             d="m 0,0 h 14.442 v 2.635 c 0,1.193 -0.965,2.159 -2.158,2.159 H 4.052 C 1.813,4.794 0,2.98 0,0.742 Z"
             style="fill:#ffffff;fill-opacity:1;fill-rule:nonzero;stroke:none"
             id="path50" /></g><g
           id="g52"
           transform="translate(125.0867,77.6563)"><path
             d="m 0,0 h 14.442 v 2.635 c 0,1.193 -0.965,2.159 -2.158,2.159 H 4.052 C 1.813,4.794 0,2.98 0,0.742 Z"
             style="fill:none;stroke:#555555;stroke-width:1;stroke-linecap:round;stroke-linejoin:round;stroke-miterlimit:10;stroke-dasharray:none;stroke-opacity:1"
             id="path54" /></g><g
           id="g56"
           transform="translate(132.3084,96.6099)"><path
             d="m 0,0 h 4.682 v -13.882 c 0,-1.092 -0.886,-1.978 -1.979,-1.978 H 1.978 C 0.886,-15.86 0,-14.974 0,-13.882 Z"
             style="fill:#515ca2;fill-opacity:1;fill-rule:nonzero;stroke:none"
             id="path58" /></g><g
           id="g60"
           transform="translate(132.3084,96.6099)"><path
             d="m 0,0 h 4.682 v -13.882 c 0,-1.092 -0.886,-1.978 -1.979,-1.978 H 1.978 C 0.886,-15.86 0,-14.974 0,-13.882 Z"
             style="fill:none;stroke:#555555;stroke-width:1;stroke-linecap:round;stroke-linejoin:round;stroke-miterlimit:10;stroke-dasharray:none;stroke-opacity:1"
             id="path62" /></g><g
           id="g64"
           transform="translate(153.7566,138.6123)"><path
             d="m 0,0 v -53.634 h -25.526 l 2.758,30.551 0.064,0.59 0.189,2.654 c 0.042,0.547 0.084,1.074 0.106,1.621 v 0.38 c 0,1.073 -0.084,2.127 -0.211,3.18 l -1.643,14.953 c -0.273,0.147 -0.568,0.295 -0.905,0.442 -4.149,2.022 -11.879,5.771 -14.448,14.111 -1.958,6.381 -0.358,14.111 4.739,22.957 0.884,1.516 2.822,2.022 4.317,1.158 1.517,-0.863 2.043,-2.801 1.159,-4.317 -4.192,-7.267 -5.603,-13.311 -4.17,-17.944 1.748,-5.708 7.644,-8.572 11.162,-10.278 0.316,-0.148 0.59,-0.295 0.863,-0.422 0.127,-0.105 0.317,-0.189 0.526,-0.273 0,0 0.022,0 0.043,-0.021 0.631,-0.169 1.516,-0.211 2,-0.211 H -5.519 C -2.465,5.497 0,3.033 0,0"
             style="fill:#e6e6e6;fill-opacity:1;fill-rule:nonzero;stroke:none"
             id="path66" /></g><g
           id="g68"
           transform="translate(153.7566,138.6123)"><path
             d="m 0,0 v -53.634 h -25.526 l 2.758,30.551 0.064,0.59 0.189,2.654 c 0.042,0.547 0.084,1.074 0.106,1.621 v 0.38 c 0,1.073 -0.084,2.127 -0.211,3.18 l -1.643,14.953 c -0.273,0.147 -0.568,0.295 -0.905,0.442 -4.149,2.022 -11.879,5.771 -14.448,14.111 -1.958,6.381 -0.358,14.111 4.739,22.957 0.884,1.516 2.822,2.022 4.317,1.158 1.517,-0.863 2.043,-2.801 1.159,-4.317 -4.192,-7.267 -5.603,-13.311 -4.17,-17.944 1.748,-5.708 7.644,-8.572 11.162,-10.278 0.316,-0.148 0.59,-0.295 0.863,-0.422 0.127,-0.105 0.317,-0.189 0.526,-0.273 0,0 0.022,0 0.043,-0.021 0.631,-0.169 1.516,-0.211 2,-0.211 H -5.519 C -2.465,5.497 0,3.033 0,0 Z"
             style="fill:none;stroke:#555555;stroke-width:1;stroke-linecap:round;stroke-linejoin:round;stroke-miterlimit:10;stroke-dasharray:none;stroke-opacity:1"
             id="path70" /></g><g
           id="g72"
           transform="translate(132.8816,156.0073)"><path
             d="m 0,0 c 0,-1.12 -0.907,-2.028 -2.027,-2.028 -1.12,0 -2.029,0.908 -2.029,2.028 0,1.12 0.909,2.028 2.029,2.028 C -0.907,2.028 0,1.12 0,0"
             style="fill:#515ca2;fill-opacity:1;fill-rule:nonzero;stroke:none"
             id="path74" /></g><g
           id="g76"
           transform="translate(132.8816,156.0073)"><path
             d="m 0,0 c 0,-1.12 -0.907,-2.028 -2.027,-2.028 -1.12,0 -2.029,0.908 -2.029,2.028 0,1.12 0.909,2.028 2.029,2.028 C -0.907,2.028 0,1.12 0,0 Z"
             style="fill:none;stroke:#555555;stroke-width:1;stroke-linecap:round;stroke-linejoin:round;stroke-miterlimit:10;stroke-dasharray:none;stroke-opacity:1"
             id="path78" /></g><g
           id="g80"
           transform="translate(153.1531,156.0073)"><path
             d="m 0,0 c 0,-1.12 -0.908,-2.028 -2.027,-2.028 -1.12,0 -2.029,0.908 -2.029,2.028 0,1.12 0.909,2.028 2.029,2.028 C -0.908,2.028 0,1.12 0,0"
             style="fill:#515ca2;fill-opacity:1;fill-rule:nonzero;stroke:none"
             id="path82" /></g><g
           id="g84"
           transform="translate(153.1531,156.0073)"><path
             d="m 0,0 c 0,-1.12 -0.908,-2.028 -2.027,-2.028 -1.12,0 -2.029,0.908 -2.029,2.028 0,1.12 0.909,2.028 2.029,2.028 C -0.908,2.028 0,1.12 0,0 Z"
             style="fill:none;stroke:#555555;stroke-width:1;stroke-linecap:round;stroke-linejoin:round;stroke-miterlimit:10;stroke-dasharray:none;stroke-opacity:1"
             id="path86" /></g><g
           id="g88"
           transform="translate(149.8914,154.9209)"><path
             d="m 0,0 c 0.094,0.51 0.15,1.04 0.15,1.588 0,0.699 -0.075,1.36 -0.226,2.003 h -1.72 l -0.321,0.756 c -0.435,1.039 -1.474,1.72 -2.609,1.72 h -8.372 c -1.133,0 -2.154,-0.681 -2.589,-1.72 l -0.321,-0.756 h -1.72 c -0.151,-0.643 -0.226,-1.304 -0.226,-2.003 0,-0.548 0.057,-1.078 0.151,-1.588 -1.626,1.984 -2.59,4.498 -2.59,7.257 0,6.35 5.141,11.491 11.492,11.491 6.349,0 11.49,-5.141 11.49,-11.491 C 2.589,4.498 1.625,1.984 0,0"
             style="fill:#ffffff;fill-opacity:1;fill-rule:nonzero;stroke:none"
             id="path90" /></g><g
           id="g92"
           transform="translate(149.8914,154.9209)"><path
             d="m 0,0 c 0.094,0.51 0.15,1.04 0.15,1.588 0,0.699 -0.075,1.36 -0.226,2.003 h -1.72 l -0.321,0.756 c -0.435,1.039 -1.474,1.72 -2.609,1.72 h -8.372 c -1.133,0 -2.154,-0.681 -2.589,-1.72 l -0.321,-0.756 h -1.72 c -0.151,-0.643 -0.226,-1.304 -0.226,-2.003 0,-0.548 0.057,-1.078 0.151,-1.588 -1.626,1.984 -2.59,4.498 -2.59,7.257 0,6.35 5.141,11.491 11.492,11.491 6.349,0 11.49,-5.141 11.49,-11.491 C 2.589,4.498 1.625,1.984 0,0 Z"
             style="fill:none;stroke:#555555;stroke-width:1;stroke-linecap:round;stroke-linejoin:round;stroke-miterlimit:10;stroke-dasharray:none;stroke-opacity:1"
             id="path94" /></g><g
           id="g96"
           transform="translate(150.0418,156.5088)"><path
             d="m 0,0 c 0,-0.548 -0.057,-1.078 -0.15,-1.588 -2.099,-2.589 -5.311,-4.233 -8.902,-4.233 -3.591,0 -6.803,1.644 -8.901,4.233 -0.095,0.51 -0.151,1.04 -0.151,1.588 0,0.699 0.075,1.36 0.226,2.003 h 1.72 l 0.321,0.756 c 0.435,1.039 1.455,1.72 2.589,1.72 h 8.372 c 1.135,0 2.174,-0.681 2.608,-1.72 l 0.322,-0.756 h 1.719 C -0.075,1.36 0,0.699 0,0"
             style="fill:#ffffff;fill-opacity:1;fill-rule:nonzero;stroke:none"
             id="path98" /></g><g
           id="g100"
           transform="translate(150.0418,156.5088)"><path
             d="m 0,0 c 0,-0.548 -0.057,-1.078 -0.15,-1.588 -2.099,-2.589 -5.311,-4.233 -8.902,-4.233 -3.591,0 -6.803,1.644 -8.901,4.233 -0.095,0.51 -0.151,1.04 -0.151,1.588 0,0.699 0.075,1.36 0.226,2.003 h 1.72 l 0.321,0.756 c 0.435,1.039 1.455,1.72 2.589,1.72 h 8.372 c 1.135,0 2.174,-0.681 2.608,-1.72 l 0.322,-0.756 h 1.719 C -0.075,1.36 0,0.699 0,0 Z"
             style="fill:none;stroke:#555555;stroke-width:1;stroke-linecap:round;stroke-linejoin:round;stroke-miterlimit:10;stroke-dasharray:none;stroke-opacity:1"
             id="path102" /></g><g
           id="g104"
           transform="translate(143.5613,153.6118)"><path
             d="m 0,0 v -8.778 c 0,-1.422 -1.153,-2.576 -2.575,-2.576 -1.421,0 -2.574,1.154 -2.574,2.576 V 0 c 0,1.421 1.153,2.575 2.574,2.575 C -1.153,2.575 0,1.421 0,0"
             style="fill:#515ca2;fill-opacity:1;fill-rule:nonzero;stroke:none"
             id="path106" /></g><g
           id="g108"
           transform="translate(143.5613,153.6118)"><path
             d="m 0,0 v -8.778 c 0,-1.422 -1.153,-2.576 -2.575,-2.576 -1.421,0 -2.574,1.154 -2.574,2.576 V 0 c 0,1.421 1.153,2.575 2.574,2.575 C -1.153,2.575 0,1.421 0,0 Z"
             style="fill:none;stroke:#555555;stroke-width:1;stroke-linecap:round;stroke-linejoin:round;stroke-miterlimit:10;stroke-dasharray:none;stroke-opacity:1"
             id="path110" /></g><g
           id="g112"
           transform="translate(150.0418,156.5088)"><path
             d="m 0,0 c 0,-0.548 -0.057,-1.078 -0.15,-1.588 -0.738,-4.233 -4.461,-7.465 -8.902,-7.465 -4.461,0 -8.165,3.232 -8.901,7.465 -0.095,0.51 -0.151,1.04 -0.151,1.588 0,0.699 0.075,1.36 0.226,2.003 h 1.72 l 0.321,0.756 c 0.435,1.039 1.455,1.72 2.589,1.72 h 8.372 c 1.135,0 2.174,-0.681 2.608,-1.72 l 0.322,-0.756 h 1.719 C -0.075,1.36 0,0.699 0,0"
             style="fill:#515ca2;fill-opacity:1;fill-rule:nonzero;stroke:none"
             id="path114" /></g><g
           id="g116"
           transform="translate(150.0418,156.5088)"><path
             d="m 0,0 c 0,-0.548 -0.057,-1.078 -0.15,-1.588 -0.738,-4.233 -4.461,-7.465 -8.902,-7.465 -4.461,0 -8.165,3.232 -8.901,7.465 -0.095,0.51 -0.151,1.04 -0.151,1.588 0,0.699 0.075,1.36 0.226,2.003 h 1.72 l 0.321,0.756 c 0.435,1.039 1.455,1.72 2.589,1.72 h 8.372 c 1.135,0 2.174,-0.681 2.608,-1.72 l 0.322,-0.756 h 1.719 C -0.075,1.36 0,0.699 0,0 Z"
             style="fill:none;stroke:#555555;stroke-width:1;stroke-linecap:round;stroke-linejoin:round;stroke-miterlimit:10;stroke-dasharray:none;stroke-opacity:1"
             id="path118" /></g><g
           id="g120"
           transform="translate(147.8992,103.2744)"><path
             d="M 0,0 C -0.131,1.77 1.197,3.311 2.968,3.441 4.737,3.572 6.278,2.243 6.408,0.473 6.539,-1.296 5.211,-2.837 3.44,-2.968 1.671,-3.099 0.13,-1.77 0,0"
             style="fill:#e6e6e6;fill-opacity:1;fill-rule:nonzero;stroke:none"
             id="path122" /></g><g
           id="g124"
           transform="translate(147.8992,103.2744)"><path
             d="M 0,0 C -0.131,1.77 1.197,3.311 2.968,3.441 4.737,3.572 6.278,2.243 6.408,0.473 6.539,-1.296 5.211,-2.837 3.44,-2.968 1.671,-3.099 0.13,-1.77 0,0 Z"
             style="fill:none;stroke:#555555;stroke-width:1;stroke-linecap:round;stroke-linejoin:round;stroke-miterlimit:10;stroke-dasharray:none;stroke-opacity:1"
             id="path126" /></g><g
           id="g128"
           transform="translate(165.1619,85.9336)"><path
             d="M 0,0 -25.383,-1.874 -26.75,16.64 -1.367,18.515 Z"
             style="fill:#e6e6e6;fill-opacity:1;fill-rule:nonzero;stroke:none"
             id="path130" /></g><g
           id="g132"
           transform="translate(165.1619,85.9336)"><path
             d="M 0,0 -25.383,-1.874 -26.75,16.64 -1.367,18.515 Z"
             style="fill:none;stroke:#555555;stroke-width:1;stroke-linecap:round;stroke-linejoin:round;stroke-miterlimit:10;stroke-dasharray:none;stroke-opacity:1"
             id="path134" /></g><g
           id="g136"
           transform="translate(146.0008,98.729)"><path
             d="M 0,0 10.853,0.801 10.529,5.183 -0.324,4.381 Z"
             style="fill:#e6e6e6;fill-opacity:1;fill-rule:nonzero;stroke:none"
             id="path138" /></g><g
           id="g140"
           transform="translate(146.0008,98.729)"><path
             d="M 0,0 10.853,0.801 10.529,5.183 -0.324,4.381 Z"
             style="fill:none;stroke:#555555;stroke-width:1;stroke-linecap:round;stroke-linejoin:round;stroke-miterlimit:10;stroke-dasharray:none;stroke-opacity:1"
             id="path142" /></g><g
           id="g144"
           transform="translate(139.7791,84.0596)"><path
             d="M 0,0 25.384,1.874 25.107,5.605 -0.276,3.73 Z"
             style="fill:#ffffff;fill-opacity:1;fill-rule:nonzero;stroke:none"
             id="path146" /></g><g
           id="g148"
           transform="translate(139.7791,84.0596)"><path
             d="M 0,0 25.384,1.874 25.107,5.605 -0.276,3.73 Z"
             style="fill:none;stroke:#555555;stroke-width:1;stroke-linecap:round;stroke-linejoin:round;stroke-miterlimit:10;stroke-dasharray:none;stroke-opacity:1"
             id="path150" /></g><g
           id="g152"
           transform="translate(135.0369,144.1109)"><path
             d="m 0,0 c 0.227,-3.081 2.797,-5.519 5.953,-5.519 3.155,0 5.726,2.438 5.953,5.519"
             style="fill:none;stroke:#555555;stroke-width:1;stroke-linecap:round;stroke-linejoin:round;stroke-miterlimit:10;stroke-dasharray:none;stroke-opacity:1"
             id="path154" /></g><g
           id="g156"
           transform="translate(147.2762,167.9024)"><path
             d="M 0,0 C 0,-0.751 -0.607,-1.358 -1.358,-1.358"
             style="fill:#ffffff;fill-opacity:1;fill-rule:nonzero;stroke:#555555;stroke-width:1;stroke-linecap:round;stroke-linejoin:round;stroke-miterlimit:10;stroke-dasharray:none;stroke-opacity:1"
             id="path158" /></g><g
           id="g160"
           transform="translate(143.3045,165.6533)"><path
             d="M 0,0 C 0,-0.751 -0.607,-1.358 -1.358,-1.358"
             style="fill:#ffffff;fill-opacity:1;fill-rule:nonzero;stroke:#555555;stroke-width:1;stroke-linecap:round;stroke-linejoin:round;stroke-miterlimit:10;stroke-dasharray:none;stroke-opacity:1"
             id="path162" /></g><g
           id="g164"
           transform="translate(134.6883,167.9024)"><path
             d="M 0,0 C 0,-0.751 -0.607,-1.358 -1.358,-1.358"
             style="fill:#ffffff;fill-opacity:1;fill-rule:nonzero;stroke:#555555;stroke-width:1;stroke-linecap:round;stroke-linejoin:round;stroke-miterlimit:10;stroke-dasharray:none;stroke-opacity:1"
             id="path166" /></g><g
           id="g168"
           transform="translate(133.5613,163.6157)"><path
             d="M 0,0 C 0,-0.751 -0.607,-1.358 -1.358,-1.358"
             style="fill:#ffffff;fill-opacity:1;fill-rule:nonzero;stroke:#555555;stroke-width:1;stroke-linecap:round;stroke-linejoin:round;stroke-miterlimit:10;stroke-dasharray:none;stroke-opacity:1"
             id="path170" /></g><g
           id="g172"
           transform="translate(139.0906,170.169)"><path
             d="M 0,0 C 0,-0.75 -0.607,-1.358 -1.358,-1.358"
             style="fill:#ffffff;fill-opacity:1;fill-rule:nonzero;stroke:#555555;stroke-width:1;stroke-linecap:round;stroke-linejoin:round;stroke-miterlimit:10;stroke-dasharray:none;stroke-opacity:1"
             id="path174" /></g><g
           id="g176"
           transform="translate(137.0535,163.6157)"><path
             d="M 0,0 C 0,0.751 0.607,1.358 1.358,1.358"
             style="fill:#ffffff;fill-opacity:1;fill-rule:nonzero;stroke:#555555;stroke-width:1;stroke-linecap:round;stroke-linejoin:round;stroke-miterlimit:10;stroke-dasharray:none;stroke-opacity:1"
             id="path178" /></g><g
           id="g180"
           transform="translate(142.8826,168.5816)"><path
             d="M 0,0 C 0,0.75 0.607,1.358 1.358,1.358"
             style="fill:#ffffff;fill-opacity:1;fill-rule:nonzero;stroke:#555555;stroke-width:1;stroke-linecap:round;stroke-linejoin:round;stroke-miterlimit:10;stroke-dasharray:none;stroke-opacity:1"
             id="path182" /></g><g
           id="g184"
           transform="translate(148.4178,162.2573)"><path
             d="M 0,0 C 0,0.751 0.608,1.358 1.358,1.358"
             style="fill:#ffffff;fill-opacity:1;fill-rule:nonzero;stroke:#555555;stroke-width:1;stroke-linecap:round;stroke-linejoin:round;stroke-miterlimit:10;stroke-dasharray:none;stroke-opacity:1"
             id="path186" /></g><g
           id="g188"
           transform="translate(131.4363,189.2554)"><path
             d="M 0,0 C -0.298,2.207 1.25,4.237 3.457,4.535 5.664,4.833 7.694,3.285 7.992,1.078 8.29,-1.129 6.742,-3.159 4.535,-3.457 2.328,-3.755 0.298,-2.207 0,0"
             style="fill:#ffffff;fill-opacity:1;fill-rule:nonzero;stroke:none"
             id="path190" /></g><g
           id="g192"
           transform="translate(131.4363,189.2554)"><path
             d="M 0,0 C -0.298,2.207 1.25,4.237 3.457,4.535 5.664,4.833 7.694,3.285 7.992,1.078 8.29,-1.129 6.742,-3.159 4.535,-3.457 2.328,-3.755 0.298,-2.207 0,0 Z"
             style="fill:none;stroke:#555555;stroke-width:1;stroke-linecap:round;stroke-linejoin:round;stroke-miterlimit:10;stroke-dasharray:none;stroke-opacity:1"
             id="path194" /></g><g
           id="g196"
           transform="translate(154.3738,168.8423)"><path
             d="m 0,0 -31.653,-4.271 -3.116,23.088 31.654,4.27 z"
             style="fill:#ffffff;fill-opacity:1;fill-rule:nonzero;stroke:none"
             id="path198" /></g><g
           id="g200"
           transform="translate(154.3738,168.8423)"><path
             d="m 0,0 -31.653,-4.271 -3.116,23.088 31.654,4.27 z"
             style="fill:none;stroke:#555555;stroke-width:1;stroke-linecap:round;stroke-linejoin:round;stroke-miterlimit:10;stroke-dasharray:none;stroke-opacity:1"
             id="path202" /></g><g
           id="g204"
           transform="translate(129.4031,183.418)"><path
             d="M 0,0 13.533,1.826 12.796,7.29 -0.737,5.463 Z"
             style="fill:#ffffff;fill-opacity:1;fill-rule:nonzero;stroke:none"
             id="path206" /></g><g
           id="g208"
           transform="translate(129.4031,183.418)"><path
             d="M 0,0 13.533,1.826 12.796,7.29 -0.737,5.463 Z"
             style="fill:none;stroke:#555555;stroke-width:1;stroke-linecap:round;stroke-linejoin:round;stroke-miterlimit:10;stroke-dasharray:none;stroke-opacity:1"
             id="path210" /></g><g
           id="g212"
           transform="translate(153.7566,120.3945)"><path
             d="m 0,0 v -4.865 h -22.768 l 0.064,0.59 0.189,2.653 c 0.042,0.548 0.084,1.075 0.106,1.622 z"
             style="fill:#515ca2;fill-opacity:1;fill-rule:nonzero;stroke:none"
             id="path214" /></g><g
           id="g216"
           transform="translate(153.7566,120.3945)"><path
             d="m 0,0 v -4.865 h -22.768 l 0.064,0.59 0.189,2.653 c 0.042,0.548 0.084,1.075 0.106,1.622 z"
             style="fill:none;stroke:#555555;stroke-width:1;stroke-linecap:round;stroke-linejoin:round;stroke-miterlimit:10;stroke-dasharray:none;stroke-opacity:1"
             id="path218" /></g><g
           id="g220"
           transform="translate(153.7459,138.5923)"><path
             d="m 0,0 v -30.163 c 0,-1.771 -1.265,-3.207 -2.825,-3.207 -1.561,0 -2.825,1.436 -2.825,3.207 v 23.565"
             style="fill:#e6e6e6;fill-opacity:1;fill-rule:nonzero;stroke:#555555;stroke-width:1;stroke-linecap:round;stroke-linejoin:round;stroke-miterlimit:10;stroke-dasharray:none;stroke-opacity:1"
             id="path222" /></g><g
           id="g224"
           transform="translate(102.1551,77.6563)"><path
             d="m 0,0 h -9.18 v 0.888 c 0,1.193 0.967,2.159 2.159,2.159 h 4.446 C -1.152,3.047 0,1.894 0,0.472 Z"
             style="fill:#ffffff;fill-opacity:1;fill-rule:nonzero;stroke:none"
             id="path226" /></g><g
           id="g228"
           transform="translate(102.1551,77.6563)"><path
             d="m 0,0 h -9.18 v 0.888 c 0,1.193 0.967,2.159 2.159,2.159 h 4.446 C -1.152,3.047 0,1.894 0,0.472 Z"
             style="fill:none;stroke:#555555;stroke-width:1;stroke-linecap:round;stroke-linejoin:round;stroke-miterlimit:10;stroke-dasharray:none;stroke-opacity:1"
             id="path230" /></g><g
           id="g232"
           transform="translate(97.5652,89.5488)"><path
             d="m 0,0 h -2.976 v -8.823 c 0,-0.694 0.564,-1.257 1.258,-1.257 h 0.461 c 0.695,0 1.257,0.563 1.257,1.257 z"
             style="fill:#515ca2;fill-opacity:1;fill-rule:nonzero;stroke:none"
             id="path234" /></g><g
           id="g236"
           transform="translate(97.5652,89.5488)"><path
             d="m 0,0 h -2.976 v -8.823 c 0,-0.694 0.564,-1.257 1.258,-1.257 h 0.461 c 0.695,0 1.257,0.563 1.257,1.257 z"
             style="fill:none;stroke:#555555;stroke-width:1;stroke-linecap:round;stroke-linejoin:round;stroke-miterlimit:10;stroke-dasharray:none;stroke-opacity:1"
             id="path238" /></g><g
           id="g240"
           transform="translate(81.9441,77.6563)"><path
             d="m 0,0 h 9.18 v 0.888 c 0,1.193 -0.967,2.159 -2.159,2.159 H 2.575 C 1.152,3.047 0,1.894 0,0.472 Z"
             style="fill:#ffffff;fill-opacity:1;fill-rule:nonzero;stroke:none"
             id="path242" /></g><g
           id="g244"
           transform="translate(81.9441,77.6563)"><path
             d="m 0,0 h 9.18 v 0.888 c 0,1.193 -0.967,2.159 -2.159,2.159 H 2.575 C 1.152,3.047 0,1.894 0,0.472 Z"
             style="fill:none;stroke:#555555;stroke-width:1;stroke-linecap:round;stroke-linejoin:round;stroke-miterlimit:10;stroke-dasharray:none;stroke-opacity:1"
             id="path246" /></g><g
           id="g248"
           transform="translate(86.534,89.5488)"><path
             d="m 0,0 h 2.976 v -8.823 c 0,-0.694 -0.564,-1.257 -1.258,-1.257 H 1.257 C 0.562,-10.08 0,-9.517 0,-8.823 Z"
             style="fill:#515ca2;fill-opacity:1;fill-rule:nonzero;stroke:none"
             id="path250" /></g><g
           id="g252"
           transform="translate(86.534,89.5488)"><path
             d="m 0,0 h 2.976 v -8.823 c 0,-0.694 -0.564,-1.257 -1.258,-1.257 H 1.257 C 0.562,-10.08 0,-9.517 0,-8.823 Z"
             style="fill:none;stroke:#555555;stroke-width:1;stroke-linecap:round;stroke-linejoin:round;stroke-miterlimit:10;stroke-dasharray:none;stroke-opacity:1"
             id="path254" /></g><g
           id="g256"
           transform="translate(103.3084,105.2227)"><path
             d="m 0,0 h -22.518 v 19.83 c 0,2.091 1.696,3.787 3.788,3.787 H -3.787 C -1.695,23.617 0,21.921 0,19.83 Z"
             style="fill:#ffffff;fill-opacity:1;fill-rule:nonzero;stroke:none"
             id="path258" /></g><g
           id="g260"
           transform="translate(103.3084,105.2227)"><path
             d="m 0,0 h -22.518 v 19.83 c 0,2.091 1.696,3.787 3.788,3.787 H -3.787 C -1.695,23.617 0,21.921 0,19.83 Z"
             style="fill:none;stroke:#555555;stroke-width:1;stroke-linecap:round;stroke-linejoin:round;stroke-miterlimit:10;stroke-dasharray:none;stroke-opacity:1"
             id="path262" /></g><path
           d="M 99.744,84.03 H 84.355 v 21.193 h 15.389 z"
           style="fill:#e6e6e6;fill-opacity:1;fill-rule:nonzero;stroke:#555555;stroke-width:1;stroke-linecap:round;stroke-linejoin:round;stroke-miterlimit:10;stroke-dasharray:none;stroke-opacity:1"
           id="path264" /><g
           id="g266"
           transform="translate(84.3553,141.3789)"><path
             d="m 0,0 c 0,-0.984 -0.798,-1.783 -1.782,-1.783 -0.985,0 -1.782,0.799 -1.782,1.783 0,0.984 0.797,1.782 1.782,1.782 C -0.798,1.782 0,0.984 0,0"
             style="fill:#515ca2;fill-opacity:1;fill-rule:nonzero;stroke:none"
             id="path268" /></g><g
           id="g270"
           transform="translate(84.3553,141.3789)"><path
             d="m 0,0 c 0,-0.984 -0.798,-1.783 -1.782,-1.783 -0.985,0 -1.782,0.799 -1.782,1.783 0,0.984 0.797,1.782 1.782,1.782 C -0.798,1.782 0,0.984 0,0 Z"
             style="fill:none;stroke:#555555;stroke-width:1;stroke-linecap:round;stroke-linejoin:round;stroke-miterlimit:10;stroke-dasharray:none;stroke-opacity:1"
             id="path272" /></g><g
           id="g274"
           transform="translate(103.3084,141.3789)"><path
             d="m 0,0 c 0,-0.984 -0.798,-1.783 -1.782,-1.783 -0.985,0 -1.782,0.799 -1.782,1.783 0,0.984 0.797,1.782 1.782,1.782 C -0.798,1.782 0,0.984 0,0"
             style="fill:#515ca2;fill-opacity:1;fill-rule:nonzero;stroke:none"
             id="path276" /></g><g
           id="g278"
           transform="translate(103.3084,141.3789)"><path
             d="m 0,0 c 0,-0.984 -0.798,-1.783 -1.782,-1.783 -0.985,0 -1.782,0.799 -1.782,1.783 0,0.984 0.797,1.782 1.782,1.782 C -0.798,1.782 0,0.984 0,0 Z"
             style="fill:none;stroke:#555555;stroke-width:1;stroke-linecap:round;stroke-linejoin:round;stroke-miterlimit:10;stroke-dasharray:none;stroke-opacity:1"
             id="path280" /></g><g
           id="g282"
           transform="translate(89.535,133.2007)"><path
             d="m 0,0 v -2.88 c 0,-1.392 1.126,-2.517 2.518,-2.517 1.385,0 2.516,1.125 2.516,2.517 V 0 Z"
             style="fill:#515ca2;fill-opacity:1;fill-rule:nonzero;stroke:none"
             id="path284" /></g><g
           id="g286"
           transform="translate(89.535,133.2007)"><path
             d="m 0,0 v -2.88 c 0,-1.392 1.126,-2.517 2.518,-2.517 1.385,0 2.516,1.125 2.516,2.517 V 0 Z"
             style="fill:none;stroke:#555555;stroke-width:1;stroke-linecap:round;stroke-linejoin:round;stroke-miterlimit:10;stroke-dasharray:none;stroke-opacity:1"
             id="path288" /></g><g
           id="g290"
           transform="translate(100.5477,143.6885)"><path
             d="m 0,0 c -2.277,1.96 -5.252,3.141 -8.497,3.141 -3.249,0 -6.224,-1.186 -8.506,-3.162 0.618,2.304 2.152,4.238 4.186,5.382 0.561,0.323 1.164,0.577 1.798,0.77 0.801,0.239 1.644,0.364 2.522,0.364 3.562,0 6.63,-2.112 8.014,-5.153 C -0.286,0.91 -0.125,0.463 0,0"
             style="fill:#ffffff;fill-opacity:1;fill-rule:nonzero;stroke:none"
             id="path292" /></g><g
           id="g294"
           transform="translate(100.5477,143.6885)"><path
             d="m 0,0 c -2.277,1.96 -5.252,3.141 -8.497,3.141 -3.249,0 -6.224,-1.186 -8.506,-3.162 0.618,2.304 2.152,4.238 4.186,5.382 0.561,0.323 1.164,0.577 1.798,0.77 0.801,0.239 1.644,0.364 2.522,0.364 3.562,0 6.63,-2.112 8.014,-5.153 C -0.286,0.91 -0.125,0.463 0,0 Z"
             style="fill:none;stroke:#555555;stroke-width:1;stroke-linecap:round;stroke-linejoin:round;stroke-miterlimit:10;stroke-dasharray:none;stroke-opacity:1"
             id="path296" /></g><g
           id="g298"
           transform="translate(100.8592,141.3799)"><path
             d="m 0,0 c 0,-4.867 -3.941,-8.808 -8.809,-8.808 -4.866,0 -8.807,3.941 -8.807,8.808 0,0.25 0.01,0.499 0.031,0.744 0.047,0.53 0.135,1.045 0.271,1.544 2.282,1.976 5.256,3.161 8.505,3.161 3.246,0 6.22,-1.18 8.497,-3.14 C -0.109,1.57 0,0.796 0,0"
             style="fill:#515ca2;fill-opacity:1;fill-rule:nonzero;stroke:none"
             id="path300" /></g><g
           id="g302"
           transform="translate(100.8592,141.3799)"><path
             d="m 0,0 c 0,-4.867 -3.941,-8.808 -8.809,-8.808 -4.866,0 -8.807,3.941 -8.807,8.808 0,0.25 0.01,0.499 0.031,0.744 0.047,0.53 0.135,1.045 0.271,1.544 2.282,1.976 5.256,3.161 8.505,3.161 3.246,0 6.22,-1.18 8.497,-3.14 C -0.109,1.57 0,0.796 0,0 Z"
             style="fill:none;stroke:#555555;stroke-width:1;stroke-linecap:round;stroke-linejoin:round;stroke-miterlimit:10;stroke-dasharray:none;stroke-opacity:1"
             id="path304" /></g><path
           d="M 99.744,82.45 H 84.355 v 3.16 h 15.389 z"
           style="fill:#ffffff;fill-opacity:1;fill-rule:nonzero;stroke:#555555;stroke-width:1;stroke-linecap:round;stroke-linejoin:round;stroke-miterlimit:10;stroke-dasharray:none;stroke-opacity:1"
           id="path306" /><g
           id="g308"
           transform="translate(92.0496,83.1162)"><path
             d="M 0,0 V 15.289"
             style="fill:#ffffff;fill-opacity:1;fill-rule:nonzero;stroke:#555555;stroke-width:1;stroke-linecap:round;stroke-linejoin:round;stroke-miterlimit:10;stroke-dasharray:none;stroke-opacity:1"
             id="path310" /></g><path
           d="M 100.857,103.511 H 84.355 v 1.711 h 16.502 z"
           style="fill:#ffffff;fill-opacity:1;fill-rule:nonzero;stroke:#555555;stroke-width:1;stroke-linecap:round;stroke-linejoin:round;stroke-miterlimit:10;stroke-dasharray:none;stroke-opacity:1"
           id="path312" /><g
           id="g314"
           transform="translate(94.6062,82.2891)"><path
             d="M 0,0 H 14.884 V 22.249 H 4.563 C 2.043,22.249 0,20.205 0,17.685 Z"
             style="fill:#e6e6e6;fill-opacity:1;fill-rule:nonzero;stroke:none"
             id="path316" /></g><g
           id="g318"
           transform="translate(94.6062,82.2891)"><path
             d="M 0,0 H 14.884 V 22.249 H 4.563 C 2.043,22.249 0,20.205 0,17.685 Z"
             style="fill:none;stroke:#555555;stroke-width:1;stroke-linecap:round;stroke-linejoin:round;stroke-miterlimit:10;stroke-dasharray:none;stroke-opacity:1"
             id="path320" /></g><path
           d="m 105.312,107.187 h 4.178 v -2.649 h -4.178 z"
           style="fill:#ffffff;fill-opacity:1;fill-rule:nonzero;stroke:#555555;stroke-width:1;stroke-linecap:round;stroke-linejoin:round;stroke-miterlimit:10;stroke-dasharray:none;stroke-opacity:1"
           id="path322" /><g
           id="g324"
           transform="translate(105.9646,94.5488)"><path
             d="M 0,0 H -7.833"
             style="fill:#ffffff;fill-opacity:1;fill-rule:nonzero;stroke:#555555;stroke-width:1;stroke-linecap:round;stroke-linejoin:round;stroke-miterlimit:10;stroke-dasharray:none;stroke-opacity:1"
             id="path326" /></g><g
           id="g328"
           transform="translate(105.9646,86.5664)"><path
             d="M 0,0 H -7.833"
             style="fill:#ffffff;fill-opacity:1;fill-rule:nonzero;stroke:#555555;stroke-width:1;stroke-linecap:round;stroke-linejoin:round;stroke-miterlimit:10;stroke-dasharray:none;stroke-opacity:1"
             id="path330" /></g><g
           id="g332"
           transform="translate(96.9969,173.8765)"><path
             d="m 0,0 h -9.895 c -3.948,0 -7.148,-3.2 -7.148,-7.148 v -10.745 c 0,-3.947 3.2,-7.148 7.148,-7.148 H 0 c 3.948,0 7.148,3.201 7.148,7.148 V -7.148 C 7.148,-3.2 3.948,0 0,0"
             style="fill:#e6e6e6;fill-opacity:1;fill-rule:nonzero;stroke:none"
             id="path334" /></g><g
           id="g336"
           transform="translate(96.9969,173.8765)"><path
             d="m 0,0 h -9.895 c -3.948,0 -7.148,-3.2 -7.148,-7.148 v -10.745 c 0,-3.947 3.2,-7.148 7.148,-7.148 H 0 c 3.948,0 7.148,3.201 7.148,7.148 V -7.148 C 7.148,-3.2 3.948,0 0,0 Z"
             style="fill:none;stroke:#555555;stroke-width:1;stroke-linecap:round;stroke-linejoin:round;stroke-miterlimit:10;stroke-dasharray:none;stroke-opacity:1"
             id="path338" /></g><path
           d="M 97.565,173.766 H 86.534 v 3.866 h 11.031 z"
           style="fill:#e6e6e6;fill-opacity:1;fill-rule:nonzero;stroke:#555555;stroke-width:1;stroke-linecap:round;stroke-linejoin:round;stroke-miterlimit:10;stroke-dasharray:none;stroke-opacity:1"
           id="path340" /><g
           id="g342"
           transform="translate(97.8592,152.8379)"><path
             d="M 0,0 C 1.825,0.906 3.079,2.793 3.079,4.965 V 5.139"
             style="fill:#ffffff;fill-opacity:1;fill-rule:nonzero;stroke:#555555;stroke-width:1;stroke-linecap:round;stroke-linejoin:round;stroke-miterlimit:10;stroke-dasharray:none;stroke-opacity:1"
             id="path344" /></g><g
           id="g346"
           transform="translate(83.6336,165.7656)"><path
             d="M 0,0 V -6.221"
             style="fill:#ffffff;fill-opacity:1;fill-rule:nonzero;stroke:#555555;stroke-width:1;stroke-linecap:round;stroke-linejoin:round;stroke-miterlimit:10;stroke-dasharray:none;stroke-opacity:1"
             id="path348" /></g><g
           id="g350"
           transform="translate(80.7908,122.0532)"><path
             d="m 0,0 v -18.65 c 0,-1.429 1.159,-2.588 2.589,-2.588 1.429,0 2.588,1.159 2.588,2.588 v 18.5"
             style="fill:#ffffff;fill-opacity:1;fill-rule:nonzero;stroke:#555555;stroke-width:1;stroke-linecap:round;stroke-linejoin:round;stroke-miterlimit:10;stroke-dasharray:none;stroke-opacity:1"
             id="path352" /></g><g
           id="g354"
           transform="translate(98.1316,122.0532)"><path
             d="m 0,0 v -18.65 c 0,-1.429 1.158,-2.588 2.588,-2.588 1.43,0 2.589,1.159 2.589,2.588 v 18.5"
             style="fill:#ffffff;fill-opacity:1;fill-rule:nonzero;stroke:#555555;stroke-width:1;stroke-linecap:round;stroke-linejoin:round;stroke-miterlimit:10;stroke-dasharray:none;stroke-opacity:1"
             id="path356" /></g></g></g></g></svg>
